<svg width="799" height="869" viewBox="0 0 799 869" fill="none" xmlns="http://www.w3.org/2000/svg">
<path d="M510.5 238.5L608.5 234L472 706H381L510.5 238.5Z" fill="white"/>
<path d="M552.5 391.5L607 234.5L735.5 680L639 685L552.5 391.5Z" fill="white"/>
<path d="M518.775 492.042L585.636 487L623 585.037L486 594L518.775 492.042Z" fill="white"/>
<path d="M41 252L84.5 245L127.5 242L171.5 237L215 238L200.5 366V532V616.5L203.5 696.5L41 702V252Z" fill="white"/>
<path d="M208.5 239L258 247.5L304 267.5L381 329L407 476L291 684L200.5 698L196.5 589L219.5 577L247 546L266 484L261 402L242.5 356L193.5 340.5L208.5 239Z" fill="white"/>
<path d="M38.4 703.2V247.2L163.2 236.4C168.4 236 173.4 235.8 178.2 235.8C183 235.4 187.4 235.2 191.4 235.2C213.4 235.2 233 237.8 250.2 243C267.8 248.2 287 255.8 307.8 265.8C335.8 278.6 358.6 294.4 376.2 313.2C393.8 331.6 406.8 354.4 415.2 381.6C423.6 408.4 427.8 441.2 427.8 480C427.8 530.8 419.2 573.6 402 608.4C385.2 643.2 362 670 332.4 688.8C302.8 707.2 268.6 718.2 229.8 721.8L98.4 733.2L38.4 703.2ZM169.2 686.4C206.8 683.2 240 672.4 268.8 654C298 635.6 320.8 609.4 337.2 575.4C353.6 541.4 361.8 499.6 361.8 450C361.8 382 347.2 330.2 318 294.6C289.2 259 246.4 241.2 189.6 241.2C185.6 241.2 181.4 241.4 177 241.8C172.6 241.8 168.2 242 163.8 242.4L44.4 252.6V696.6L169.2 686.4ZM135 333L152.4 331.8C156.8 331.4 160.8 331.2 164.4 331.2C168.4 330.8 172.4 330.6 176.4 330.6C197.2 330.6 214.2 334.4 227.4 342C241 349.6 251 362.6 257.4 381C264.2 399.4 267.6 425.2 267.6 458.4C267.6 505.6 257.8 540.2 238.2 562.2C218.6 583.8 192 596 158.4 598.8L135 600.6V333ZM201 582C221.4 573.2 236.6 559 246.6 539.4C256.6 519.4 261.6 492.4 261.6 458.4C261.6 416 255.6 385.6 243.6 367.2C242 366.8 240.4 366.6 238.8 366.6C237.2 366.6 235.6 366.6 234 366.6C230.4 366.6 226.8 366.8 223.2 367.2C220 367.2 216.6 367.4 213 367.8L201 368.4V582Z" fill="#BD0071"/>
<path d="M635.47 688.8L613.27 617.4L565.87 621.6L536.47 726.6L434.47 735.6L374.47 705.6L505.87 237L604.87 228.6L664.87 258.6L798.67 710.4L695.47 718.8L635.47 688.8ZM510.67 243L383.47 698.4L471.07 691.2L501.07 586.2L607.87 576.6L639.67 682.8L730.27 675L600.07 235.2L510.67 243ZM522.07 498.6C529.67 473.8 535.87 450.2 540.67 427.8C545.87 405.4 550.27 383 553.87 360.6H556.27C559.47 382.6 563.47 404.2 568.27 425.4C573.47 446.2 579.67 468.6 586.87 492.6L522.07 498.6Z" fill="#6C00D8"/>
</svg>
